<?xml version="1.0" encoding="iso-8859-1"?>
<!-- Generator: Adobe Illustrator 19.0.0, SVG Export Plug-In . SVG Version: 6.00 Build 0)  -->
<svg version="1.1" id="Capa_1" xmlns="http://www.w3.org/2000/svg" xmlns:xlink="http://www.w3.org/1999/xlink" x="0px" y="0px"
	 viewBox="0 0 512 512" style="enable-background:new 0 0 512 512;" xml:space="preserve">
<circle style="fill:#E2E2E4;" cx="256" cy="256" r="256"/>
<path style="fill:#B0AFB5;" d="M510.881,279.887l-141.13-141.491c-5.423-5.599-11.734-10.331-18.701-13.986l-77.696-78.077h-34.709
	v69.702h-43.669c-40.521,0-73.37,32.849-73.37,73.37v28.093l18.005,17.002c0,19.485,0,45.432,0,63.875
	c0,26.143,0.609,58.32,24.09,80.423l60.924,60.569c2.143,5.247,4.688,9.893,8.898,13.346l57.298,56.92
	C407.966,493.699,499.9,398.535,510.881,279.887z"/>
<rect x="238.65" y="46.33" style="fill:#B04B00;" width="34.709" height="72.821"/>
<rect x="256" y="46.33" style="fill:#803400;" width="17.35" height="72.82"/>
<path style="fill:#FFB844;" d="M139.612,207.289c0,0,0,57.786,0,91.086s0.979,76.395,48.971,95.983
	C236.575,413.947,208.825,459,256,459s19.425-45.053,67.417-64.642s48.971-62.683,48.971-95.983s0-91.086,0-91.086H139.612z"/>
<path style="fill:#FF8A00;" d="M372.39,207.29c0,0,0,3.88,0,10.21v80.88c0,33.3-0.98,76.39-48.97,95.98S303.18,459,256,459V207.29
	H372.39z"/>
<path style="fill:#DA6200;" d="M390.393,217.498H121.607v-28.093c0-40.521,32.849-73.37,73.37-73.37h122.047
	c40.521,0,73.37,32.849,73.37,73.37L390.393,217.498L390.393,217.498z"/>
<path style="fill:#B14B00;" d="M390.39,189.41v28.09H256V116.04h61.02C357.54,116.04,390.39,148.88,390.39,189.41z"/>
<g>
</g>
<g>
</g>
<g>
</g>
<g>
</g>
<g>
</g>
<g>
</g>
<g>
</g>
<g>
</g>
<g>
</g>
<g>
</g>
<g>
</g>
<g>
</g>
<g>
</g>
<g>
</g>
<g>
</g>
</svg>
